<svg
    aria-hidden="true"
    focusable="false"
    role="img"
    xmlns="http://www.w3.org/2000/svg"
    viewBox="0 0 496 512"
    shape-rendering="geometricPrecision"
    class="{classProp}"
>
    <path
        fill="currentColor"
        d="M384 48v464L192 400 0 512V48A48 48 0 0 1 48 0h32v326.11a16 16 0 0 0 23.16 14.31L192 296l88.84 44.42A16 16 0 0 0 304 326.11V0h32a48 48 0 0 1 48 48z"
        style="color: {VARIANT_MAP[variant].light}"
    >
    </path>
    <path
        fill="currentColor"
        d="M304 0v326.11a16 16 0 0 1-23.16 14.31L192 296l-88.84 44.42A16 16 0 0 1 80 326.11V0z"
        style="color: {VARIANT_MAP[variant].dark}"
    >
    </path>
</svg>